<svg width="91" height="88" viewBox="0 0 91 88" fill="none" xmlns="http://www.w3.org/2000/svg">
<g clip-path="url(#clip0_234_418)">
<path opacity="0.969" fill-rule="evenodd" clip-rule="evenodd" d="M45.6886 -0.0273438C45.7429 -0.0273438 45.7971 -0.0273438 45.8513 -0.0273438C50.272 3.59863 54.5744 7.37747 58.7584 11.3093C63.2124 15.7304 67.3426 20.4068 71.1502 25.3386C75.2192 30.8846 78.7258 36.7907 81.6711 43.0571C82.6136 45.1629 83.4813 47.2992 84.2742 49.4659C85.0909 51.7917 85.8865 54.1255 86.6603 56.4671C88.1273 61.5619 89.2482 66.732 90.0227 71.9776C90.3529 74.1555 90.6691 76.328 90.9717 78.4941C90.9717 78.6734 90.9717 78.8533 90.9717 79.0326C85.7487 80.8185 80.4704 82.425 75.1362 83.8527C69.4202 85.2212 63.6533 86.3344 57.8364 87.1917C54.7133 87.6021 51.5859 87.8623 48.4544 87.9727C46.0683 87.9727 43.6821 87.9727 41.2959 87.9727C36.05 87.7836 30.8438 87.1826 25.6773 86.1685C20.4751 85.2761 15.3593 84.0374 10.3299 82.4525C6.85507 81.371 3.40234 80.2309 -0.0282822 79.0326C-0.0282822 78.835 -0.0282822 78.6379 -0.0282822 78.4402C0.602676 72.5624 1.55172 66.7277 2.81886 60.9372C4.38891 54.8412 6.48586 48.935 9.10968 43.2187C12.8167 35.6341 17.336 28.597 22.6675 22.1073C24.4391 20.0608 26.2106 18.0143 27.9821 15.9678C30.3218 13.4827 32.7532 11.0861 35.2762 8.77804C38.6777 5.74926 42.1485 2.81411 45.6886 -0.0273438ZM45.7429 2.61158C50.7228 6.69243 55.504 11.0189 60.087 15.5908C63.5784 19.3624 66.8865 23.2759 70.0113 27.3313C74.2273 33.2245 77.8065 39.5077 80.7491 46.1807C82.7329 51.0863 84.4141 56.095 85.7926 61.2064C87.0747 66.6119 88.0237 72.0696 88.6398 77.5785C82.9916 79.533 77.261 81.2116 71.4485 82.614C65.9245 83.8215 60.3571 84.7731 54.7453 85.4684C44.9098 86.4308 35.1482 85.9461 25.4604 84.0143C19.7148 82.9829 14.0747 81.5466 8.54025 79.7058C6.43321 79.0235 4.33628 78.3142 2.24943 77.5785C2.77856 72.2765 3.61915 67.0164 4.77118 61.7988C6.12132 56.43 7.89284 51.2061 10.0858 46.1269C13.7865 38.0882 18.4143 30.6562 23.969 23.8307C25.9169 21.5011 27.9054 19.2032 29.9345 16.9372C33.1885 13.5438 36.596 10.3215 40.1571 7.27009C42.0134 5.70429 43.8754 4.15145 45.7429 2.61158Z" fill="#FEFFFE"/>
<path opacity="0.977" fill-rule="evenodd" clip-rule="evenodd" d="M46.3403 6.11289C46.4748 6.10336 46.5743 6.15721 46.6386 6.27446C49.6259 10.7537 52.6267 15.2237 55.641 19.6845C55.7532 19.8708 55.8346 20.0683 55.885 20.2769C55.8145 20.6595 55.5797 20.8211 55.18 20.7616C54.2152 20.7285 53.2752 20.558 52.36 20.25C51.7064 20.0486 51.0556 19.8421 50.4076 19.6306C50.207 19.7131 50.0715 19.8568 50.0009 20.0615C49.7816 20.9686 49.5285 21.8662 49.2417 22.7543C49.1616 23.059 48.9808 23.2745 48.6994 23.4005C48.5546 23.2742 48.4823 23.1127 48.4824 22.9158C47.7505 17.3165 47.0365 11.7155 46.3403 6.11289Z" fill="#FEFFFE"/>
<path opacity="0.928" fill-rule="evenodd" clip-rule="evenodd" d="M50.8956 21.8923C50.9878 21.8837 51.0782 21.8927 51.1668 21.9193C52.392 24.4742 53.3049 27.14 53.9055 29.9168C54.1544 31.0448 54.3892 32.1758 54.6105 33.3097C54.7553 34.533 54.918 35.7537 55.0986 36.9719C57.3904 36.2615 59.6952 35.5883 62.0131 34.9523C63.2056 34.8227 64.3987 34.697 65.5923 34.5753C67.0202 34.5394 68.4487 34.5394 69.8766 34.5753C71.1022 34.6681 72.1776 35.1079 73.1033 35.8948C73.2839 36.1461 73.4651 36.3974 73.6456 36.6488C74.0036 37.4163 74.1755 38.2241 74.1608 39.0723C74.1993 40.3365 73.9916 41.5572 73.5372 42.7344C73.1657 43.598 72.7497 44.4418 72.2899 45.2656C69.6602 49.6479 66.3065 53.4088 62.23 56.5484C61.0938 57.3713 59.9729 58.2152 58.8676 59.0796C58.6518 59.2142 58.4891 59.1695 58.3796 58.945C59.2451 56.4601 59.5249 53.9111 59.2201 51.2975C59.0455 50.712 58.7565 50.1914 58.3524 49.7357C57.7114 48.955 56.9701 48.2907 56.129 47.743C56.1837 50.5258 56.1474 53.3083 56.0205 56.0906C55.7217 59.0758 55.4413 62.0557 55.1799 65.0306C58.4143 66.7982 61.7224 68.423 65.1042 69.9046C66.6536 70.4835 68.1905 71.0937 69.7139 71.7357C70.0273 71.8089 70.0995 71.9705 69.9308 72.2204C67.0284 71.9958 64.1904 71.4394 61.4165 70.5508C59.0976 69.848 56.8378 68.9955 54.6376 67.9927C54.0257 70.3333 53.4201 72.6851 52.8209 75.0478C52.2635 76.3495 51.685 77.642 51.0855 78.9254C50.5612 79.8231 50.037 80.7204 49.5128 81.6181C48.9984 82.398 48.3567 83.0534 47.5875 83.5839C46.4739 84.1994 45.317 84.2894 44.1167 83.8532C43.0949 83.355 42.1368 82.7626 41.2425 82.0759C40.7315 81.5535 40.2524 81.0058 39.8054 80.4333C38.2564 78.0928 37.009 75.5976 36.0634 72.9474C35.2207 70.8029 34.6061 68.5948 34.2195 66.3232C33.9083 64.3348 33.628 62.3422 33.379 60.3452C33.3778 60.2127 33.4049 60.0867 33.4603 59.9682C33.5218 59.8761 33.6031 59.8492 33.7044 59.8874C34.4492 60.7351 35.2627 61.5069 36.1448 62.2032C37.039 62.836 37.9609 63.4284 38.9105 63.9805C39.2959 64.1716 39.6936 64.3332 40.1036 64.4652C41.729 64.5777 43.2655 64.2546 44.7133 63.4958C42.3457 62.2129 40.0318 60.8482 37.7717 59.4027C35.2152 57.591 32.6664 55.7691 30.1251 53.9364C26.8294 55.9264 23.6298 58.0536 20.5262 60.3183C19.3128 61.3378 18.0565 62.298 16.7571 63.1995C16.7098 63.1866 16.6645 63.1688 16.6215 63.1457C16.5593 63.024 16.5503 62.898 16.5944 62.7687C18.22 60.5418 20.0548 58.4861 22.0989 56.6022C22.7858 55.9921 23.4727 55.3813 24.1597 54.7712C25.3643 53.8168 26.5755 52.8743 27.7931 51.9437C26.1126 50.3198 24.4224 48.7041 22.7225 47.0967C22.0356 46.1633 21.3487 45.2297 20.6617 44.2962C19.9157 43.1199 19.2107 41.9172 18.5467 40.6879C18.4021 40.293 18.2575 39.898 18.1129 39.5031C17.599 37.4277 18.2588 35.839 20.0923 34.7369C20.9076 34.2693 21.7572 33.8743 22.6412 33.5521C23.9347 33.2558 25.2453 33.1212 26.5729 33.1481C31.3635 33.2214 36.0003 34.0921 40.4833 35.7601C42.0379 36.3885 43.5925 37.0168 45.1471 37.6451C45.2971 37.7241 45.4327 37.8228 45.5539 37.9413C45.59 38.0311 45.59 38.1208 45.5539 38.2106C44.4555 38.4452 43.3799 38.7593 42.3271 39.153C41.2463 39.6358 40.1978 40.1744 39.1817 40.7687C38.7527 41.0757 38.364 41.4258 38.0157 41.8189C37.3696 42.9801 37.0171 44.2188 36.9582 45.5349C39.0112 44.2909 41.1082 43.115 43.249 42.0074C46.2188 40.6225 49.2015 39.2672 52.1972 37.9413C52.1617 34.5955 51.9719 31.2565 51.6278 27.9242C51.3688 26.1478 51.1157 24.3705 50.8685 22.5925C50.8269 22.3544 50.8359 22.1211 50.8956 21.8923ZM50.028 46.6659C49.3828 46.7006 48.732 46.7635 48.0756 46.8544C44.7344 47.5582 41.4805 48.5456 38.314 49.8164C38.2206 49.8446 38.1483 49.8985 38.0971 49.978C38.5998 51.1297 39.2595 52.1798 40.0765 53.1286C42.4392 55.7265 45.0061 58.0962 47.7774 60.2375C47.9847 60.0054 48.1655 59.7539 48.3197 59.4835C48.9992 58.2314 49.5415 56.9211 49.9466 55.5521C50.7612 52.6472 51.3849 49.7031 51.8176 46.7197C51.2221 46.6659 50.6256 46.648 50.028 46.6659Z" fill="#6190BB"/>
<path fill-rule="evenodd" clip-rule="evenodd" d="M51.0041 22.0537C51.1803 22.2777 51.3159 22.529 51.4108 22.8077C52.8292 26.1879 53.8235 29.6885 54.3935 33.3095C54.7732 36.2534 55.1528 39.1976 55.5324 42.1418C56.0465 47.0366 56.1186 51.9375 55.7493 56.8444C55.5047 59.542 55.2244 62.2348 54.9087 64.9227C52.5509 63.4783 50.237 61.9704 47.9671 60.3989C49.0146 58.7665 49.7828 57.0076 50.272 55.121C51.2256 51.7504 51.8583 48.3216 52.1701 44.8346C52.4492 41.4625 52.5034 38.0875 52.3328 34.7098C52.2337 32.4433 52.071 30.1813 51.8447 27.924C51.5423 25.9705 51.2621 24.0137 51.0041 22.0537Z" fill="#FEFEFE"/>
<path fill-rule="evenodd" clip-rule="evenodd" d="M25.5696 33.3634C26.8175 33.3611 28.0648 33.388 29.3115 33.4442C31.4588 33.7039 33.5919 34.045 35.7108 34.4675C39.0431 35.3779 42.2608 36.5718 45.364 38.0489C42.8582 38.5751 40.5624 39.5715 38.4766 41.0378C37.9372 41.5201 37.5486 42.1035 37.3106 42.7881C37.137 43.3235 36.9743 43.862 36.8225 44.4038C36.7573 44.8704 36.694 45.3372 36.6327 45.8041C33.6691 47.6794 30.804 49.69 28.0371 51.8359C26.2513 50.2063 24.4979 48.5367 22.7766 46.8273C21.9632 45.6964 21.1497 44.5654 20.3362 43.4344C19.8438 42.546 19.3376 41.6664 18.8178 40.7955C18.586 40.2307 18.3872 39.6562 18.2212 39.0721C18.1173 38.4614 18.1173 37.8511 18.2212 37.241C18.3659 36.9179 18.5104 36.5948 18.6551 36.2716C18.9371 36.0096 19.1992 35.7313 19.4414 35.4369C20.2944 34.8516 21.1982 34.3489 22.153 33.9289C23.2736 33.5878 24.4124 33.3993 25.5696 33.3634Z" fill="#FEFEFE"/>
<path fill-rule="evenodd" clip-rule="evenodd" d="M65.8093 34.7099C67.075 34.7009 68.3403 34.7099 69.6055 34.7368C70.8273 34.7967 71.9119 35.2006 72.8593 35.9486C73.0671 36.2179 73.2753 36.4872 73.483 36.7564C73.9028 37.7202 74.047 38.7255 73.9169 39.7723C73.9201 40.4273 73.848 41.0736 73.6999 41.7111C73.4277 42.505 73.1023 43.2769 72.7238 44.0269C72.1364 45.0858 71.522 46.127 70.8799 47.1506C69.3327 49.2802 67.6428 51.2997 65.8093 53.2093C63.5408 55.2741 61.1546 57.186 58.6508 58.9449C58.8384 58.1635 59.0467 57.3734 59.2744 56.5753C59.4279 55.3409 59.5271 54.1022 59.5727 52.8592C59.6752 51.6849 59.3585 50.6437 58.6236 49.7356C57.8899 48.8449 57.0401 48.0909 56.0748 47.4737C55.9208 44.0257 55.5867 40.5969 55.0715 37.1873C55.3221 37.0834 55.5748 36.9847 55.8307 36.8911C57.8769 36.3248 59.9192 35.7504 61.9589 35.1677C63.2528 35.0365 64.5365 34.8839 65.8093 34.7099Z" fill="#FEFEFE"/>
<path fill-rule="evenodd" clip-rule="evenodd" d="M52.143 38.1567C52.2151 38.505 52.2513 38.873 52.2514 39.2608C52.2424 39.6288 52.2334 39.9968 52.2243 40.3648C52.1488 42.4141 52.0312 44.4606 51.8718 46.5044C50.7315 46.4851 49.5927 46.512 48.4552 46.5851C44.4399 47.3519 40.5713 48.5726 36.8498 50.2473C33.985 51.5799 31.2011 53.0519 28.4981 54.6635C25.7484 56.3712 23.073 58.1845 20.4719 60.1029C19.2903 61.0933 18.0792 62.0449 16.8384 62.9572C16.8023 62.9933 16.7661 62.9933 16.73 62.9572C18.446 60.6237 20.3803 58.4694 22.5327 56.4946C23.3202 55.8251 24.0975 55.1428 24.8647 54.448C27.134 52.7557 29.3937 51.0502 31.6436 49.3318C34.3943 47.3912 37.2324 45.5781 40.1579 43.8924C41.5869 43.1109 43.0331 42.3569 44.4964 41.6304C47.0631 40.4994 49.6119 39.3415 52.143 38.1567Z" fill="#FEFEFE"/>
<path fill-rule="evenodd" clip-rule="evenodd" d="M37.7175 50.005C37.7812 49.9932 37.8355 50.0111 37.8802 50.0588C38.2727 50.8928 38.7336 51.6827 39.2631 52.4285C39.7847 53.1226 40.3452 53.7868 40.9443 54.4211C43.1944 56.7105 45.5896 58.8201 48.1299 60.7492C50.8223 62.6249 53.6062 64.3666 56.4815 65.9731C59.0201 67.2872 61.5868 68.5442 64.1823 69.743C66.0696 70.4906 67.9492 71.2531 69.8224 72.0319C67.1916 71.7987 64.607 71.3048 62.0673 70.5509C60.7582 70.1416 59.4566 69.7107 58.1627 69.2583C54.8356 67.8845 51.5275 66.4665 48.2384 65.0037C44.5605 63.2664 41.0354 61.2915 37.6633 59.0796C35.4132 57.4688 33.1536 55.8709 30.8844 54.2865C30.6775 54.1438 30.4968 53.9736 30.3421 53.7749C32.7732 52.46 35.2318 51.2034 37.7175 50.005Z" fill="#FEFEFE"/>
<path opacity="0.975" fill-rule="evenodd" clip-rule="evenodd" d="M13.0422 59.5373C13.2092 59.5244 13.3718 59.5421 13.5303 59.5911C13.9865 60.1862 14.3028 60.8503 14.4793 61.5838C14.739 62.5257 14.9559 63.4768 15.1301 64.4381C15.1488 64.5647 15.2121 64.6633 15.3199 64.7343C15.5006 64.7704 15.6814 64.7704 15.8622 64.7343C16.8314 64.4376 17.8166 64.213 18.8178 64.0611C19.0265 64.0525 19.1982 64.1247 19.333 64.2766C19.3059 64.3304 19.2788 64.3843 19.2516 64.4381C14.6691 67.8757 10.0866 71.3139 5.50403 74.7515C5.43391 74.7779 5.36159 74.787 5.28711 74.7784C5.27861 74.7046 5.28765 74.6325 5.31422 74.563C7.78657 69.7063 10.245 64.8415 12.6897 59.9681C12.7958 59.8087 12.9133 59.6649 13.0422 59.5373Z" fill="#FEFFFE"/>
<path fill-rule="evenodd" clip-rule="evenodd" d="M33.5961 60.0762C34.3663 60.9217 35.1979 61.7026 36.0907 62.4189C36.7415 62.8497 37.3923 63.2806 38.0431 63.7114C38.6275 64.0733 39.2421 64.3787 39.8869 64.627C40.6668 64.8063 41.4441 64.7885 42.2189 64.5731C43.2029 64.4142 44.1248 64.0819 44.9847 63.5768C48.0274 65.1413 51.1367 66.5598 54.3124 67.8314C54.3303 67.8675 54.3488 67.903 54.3667 67.9391C53.8022 70.4143 53.1786 72.8739 52.4957 75.3173C51.9458 76.5425 51.3854 77.7634 50.8145 78.9795C50.2903 79.8772 49.7661 80.7745 49.2418 81.6723C48.9683 81.962 48.7152 82.2668 48.4826 82.5878C46.9122 84.1426 45.1678 84.3494 43.2493 83.2071C42.446 82.7321 41.6959 82.1844 40.9987 81.5645C39.578 79.8218 38.403 77.9191 37.4736 75.8559C36.6652 73.986 35.9421 72.0827 35.3044 70.1472C34.4654 66.835 33.8959 63.4782 33.5961 60.0762Z" fill="#FEFEFE"/>
<path opacity="0.977" fill-rule="evenodd" clip-rule="evenodd" d="M69.5512 69.1234C69.7377 69.1126 69.9183 69.1396 70.0935 69.2042C75.2975 71.3724 80.5037 73.5358 85.7121 75.6938C85.7625 75.7579 85.7804 75.8295 85.7663 75.9092C80.2342 76.2566 74.7026 76.6153 69.1716 76.9863C68.7708 77.0391 68.5175 76.8775 68.4123 76.5016C68.6499 75.9038 68.9845 75.3653 69.4156 74.8859C70.1803 74.0727 70.9937 73.3188 71.856 72.624C71.927 72.5362 71.9721 72.4371 71.9916 72.3278C71.939 72.1312 71.8392 71.9611 71.6933 71.8162C70.8918 71.1462 70.1868 70.3922 69.5783 69.5542C69.5512 69.4115 69.5425 69.2683 69.5512 69.1234Z" fill="#FEFFFE"/>
</g>
<defs>
<clipPath id="clip0_234_418">
<rect width="91" height="88" fill="white"/>
</clipPath>
</defs>
</svg>
