<svg width="248" height="40" viewBox="0 0 248 40" fill="none" xmlns="http://www.w3.org/2000/svg">
<path d="M53.9772 28.946V13.2254H59.9817C61.3307 13.2254 62.4817 13.4425 63.4348 13.8767C64.3879 14.3109 65.121 14.9397 65.6342 15.7632C66.1475 16.5866 66.4041 17.5673 66.4041 18.7052C66.4041 19.843 66.1475 20.8237 65.6342 21.6472C65.121 22.4556 64.3879 23.0845 63.4348 23.5336C62.4817 23.9678 61.3307 24.1849 59.9817 24.1849H55.1869L56.1766 23.1294V28.946H53.9772ZM56.1766 23.354L55.1869 22.2311H59.9157C61.3233 22.2311 62.3864 21.9241 63.1049 21.3103C63.838 20.6964 64.2046 19.8281 64.2046 18.7052C64.2046 17.5823 63.838 16.7139 63.1049 16.1C62.3864 15.4862 61.3233 15.1793 59.9157 15.1793H55.1869L56.1766 14.0564V23.354Z" fill="white"/>
<path d="M69.5422 28.946V12.2822H71.6537V28.946H69.5422Z" fill="white"/>
<path d="M82.9214 28.946V26.4307L82.8114 25.9591V21.6696C82.8114 20.7563 82.5475 20.0526 82.0196 19.5586C81.5064 19.0495 80.7293 18.795 79.6882 18.795C78.999 18.795 78.3245 18.9148 77.6647 19.1543C77.0049 19.3789 76.4477 19.6858 75.9931 20.0751L75.1133 18.4581C75.7145 17.9641 76.433 17.5898 77.2688 17.3352C78.1192 17.0657 79.0063 16.931 79.9301 16.931C81.5284 16.931 82.7601 17.3277 83.6252 18.1213C84.4903 18.9148 84.9229 20.1275 84.9229 21.7594V28.946H82.9214ZM79.0943 29.0807C78.2292 29.0807 77.4667 28.931 76.8069 28.6316C76.1617 28.3321 75.6632 27.9204 75.3113 27.3964C74.9594 26.8574 74.7834 26.251 74.7834 25.5773C74.7834 24.9335 74.93 24.3496 75.2233 23.8256C75.5312 23.3016 76.0224 22.8823 76.6969 22.5679C77.3861 22.2535 78.3099 22.0963 79.4682 22.0963H83.1633V23.6459H79.5562C78.5005 23.6459 77.7893 23.8256 77.4228 24.1849C77.0562 24.5442 76.8729 24.9784 76.8729 25.4875C76.8729 26.0714 77.1002 26.543 77.5547 26.9023C78.0093 27.2467 78.6398 27.4189 79.4462 27.4189C80.238 27.4189 80.9272 27.2392 81.5137 26.8799C82.1149 26.5205 82.5475 25.9965 82.8114 25.3078L83.2293 26.79C82.9507 27.4937 82.4595 28.0552 81.7557 28.4744C81.0518 28.8786 80.1647 29.0807 79.0943 29.0807Z" fill="white"/>
<path d="M92.1735 29.0807C91.2057 29.0807 90.2819 28.946 89.4022 28.6765C88.5371 28.407 87.8552 28.0776 87.3567 27.6884L88.2365 25.9816C88.735 26.3259 89.3508 26.6179 90.084 26.8574C90.8171 27.097 91.565 27.2167 92.3274 27.2167C93.3099 27.2167 94.0137 27.0745 94.4389 26.79C94.8788 26.5056 95.0987 26.1088 95.0987 25.5998C95.0987 25.2255 94.9668 24.9335 94.7028 24.7239C94.4389 24.5143 94.087 24.3571 93.6471 24.2523C93.2219 24.1475 92.7453 24.0576 92.2175 23.9828C91.6896 23.893 91.1617 23.7882 90.6339 23.6684C90.106 23.5336 89.6221 23.354 89.1822 23.1294C88.7423 22.8898 88.3904 22.5679 88.1265 22.1637C87.8626 21.7445 87.7306 21.1905 87.7306 20.5018C87.7306 19.7831 87.9285 19.1543 88.3244 18.6153C88.7203 18.0763 89.2775 17.6646 89.996 17.3801C90.7292 17.0807 91.5943 16.931 92.5914 16.931C93.3538 16.931 94.1236 17.0283 94.9008 17.2229C95.6926 17.4026 96.3377 17.6646 96.8363 18.009L95.9345 19.7158C95.4066 19.3564 94.8568 19.1094 94.2849 18.9747C93.7131 18.8399 93.1412 18.7725 92.5694 18.7725C91.6456 18.7725 90.9564 18.9297 90.5019 19.2442C90.0473 19.5436 89.8201 19.9329 89.8201 20.412C89.8201 20.8162 89.952 21.1306 90.216 21.3552C90.4946 21.5648 90.8465 21.7295 91.2717 21.8493C91.7116 21.9691 92.1955 22.0739 92.7233 22.1637C93.2512 22.2386 93.7791 22.3434 94.3069 22.4781C94.8348 22.5979 95.3113 22.7701 95.7366 22.9946C96.1765 23.2192 96.5284 23.5336 96.7923 23.9379C97.0709 24.3421 97.2102 24.8811 97.2102 25.5548C97.2102 26.2735 97.0049 26.8948 96.5944 27.4189C96.1838 27.9429 95.6046 28.3546 94.8568 28.654C94.109 28.9385 93.2145 29.0807 92.1735 29.0807Z" fill="white"/>
<path d="M103.852 29.0807C102.679 29.0807 101.77 28.7589 101.125 28.1151C100.48 27.4713 100.157 26.5505 100.157 25.3527V14.4381H102.268V25.2629C102.268 25.9067 102.422 26.4008 102.73 26.7451C103.053 27.0895 103.507 27.2617 104.094 27.2617C104.754 27.2617 105.304 27.0745 105.744 26.7002L106.403 28.2498C106.081 28.5343 105.692 28.7439 105.238 28.8786C104.798 29.0134 104.336 29.0807 103.852 29.0807ZM98.1774 18.8175V17.0433H105.612V18.8175H98.1774Z" fill="white"/>
<path d="M118.228 28.946V15.1793H112.949V13.2254H125.684V15.1793H120.405V28.946H118.228Z" fill="white"/>
<path d="M131.76 29.0807C130.513 29.0807 129.413 28.8187 128.46 28.2947C127.522 27.7707 126.789 27.052 126.261 26.1388C125.748 25.2255 125.491 24.1774 125.491 22.9946C125.491 21.8119 125.74 20.7638 126.239 19.8505C126.752 18.9372 127.449 18.2261 128.328 17.717C129.223 17.193 130.227 16.931 131.342 16.931C132.471 16.931 133.468 17.1855 134.333 17.6946C135.198 18.2036 135.872 18.9223 136.356 19.8505C136.855 20.7638 137.104 21.8343 137.104 23.062C137.104 23.1518 137.097 23.2566 137.082 23.3764C137.082 23.4962 137.075 23.6085 137.06 23.7133H127.141V22.1637H135.96L135.103 22.7027C135.117 21.9391 134.963 21.2579 134.641 20.659C134.318 20.0601 133.871 19.596 133.299 19.2666C132.742 18.9223 132.089 18.7501 131.342 18.7501C130.608 18.7501 129.956 18.9223 129.384 19.2666C128.812 19.596 128.365 20.0676 128.042 20.6815C127.72 21.2803 127.559 21.9691 127.559 22.7476V23.1069C127.559 23.9004 127.735 24.6116 128.086 25.2404C128.453 25.8543 128.959 26.3334 129.604 26.6777C130.249 27.0221 130.99 27.1943 131.826 27.1943C132.515 27.1943 133.138 27.0745 133.695 26.835C134.267 26.5954 134.765 26.2361 135.191 25.757L136.356 27.1494C135.828 27.7782 135.169 28.2573 134.377 28.5867C133.6 28.9161 132.727 29.0807 131.76 29.0807Z" fill="white"/>
<path d="M145.117 29.0807C143.929 29.0807 142.866 28.8187 141.928 28.2947C141.004 27.7707 140.278 27.052 139.75 26.1388C139.222 25.2255 138.958 24.1774 138.958 22.9946C138.958 21.8119 139.222 20.7638 139.75 19.8505C140.278 18.9372 141.004 18.2261 141.928 17.717C142.866 17.193 143.929 16.931 145.117 16.931C146.173 16.931 147.111 17.1481 147.932 17.5823C148.768 18.0015 149.413 18.6303 149.868 19.4687L148.262 20.5243C147.881 19.9404 147.412 19.5137 146.854 19.2442C146.312 18.9597 145.725 18.8175 145.095 18.8175C144.332 18.8175 143.651 18.9896 143.049 19.334C142.448 19.6783 141.972 20.1649 141.62 20.7938C141.268 21.4076 141.092 22.1412 141.092 22.9946C141.092 23.848 141.268 24.5892 141.62 25.218C141.972 25.8468 142.448 26.3334 143.049 26.6777C143.651 27.0221 144.332 27.1943 145.095 27.1943C145.725 27.1943 146.312 27.0595 146.854 26.79C147.412 26.5056 147.881 26.0714 148.262 25.4875L149.868 26.5205C149.413 27.344 148.768 27.9803 147.932 28.4295C147.111 28.8637 146.173 29.0807 145.117 29.0807Z" fill="white"/>
<path d="M158.675 16.931C159.628 16.931 160.464 17.1181 161.183 17.4924C161.916 17.8667 162.488 18.4357 162.898 19.1992C163.309 19.9628 163.514 20.9285 163.514 22.0963V28.946H161.403V22.3434C161.403 21.1905 161.124 20.3221 160.567 19.7382C160.024 19.1543 159.255 18.8624 158.258 18.8624C157.51 18.8624 156.857 19.0121 156.3 19.3115C155.743 19.611 155.31 20.0526 155.002 20.6366C154.709 21.2205 154.562 21.9466 154.562 22.815V28.946H152.451V12.2822H154.562V20.2548L154.145 19.4014C154.526 18.6228 155.112 18.0165 155.904 17.5823C156.696 17.1481 157.62 16.931 158.675 16.931Z" fill="white"/>
<path d="M173.636 28.946V13.2254H175.44L182.346 25.1057H181.378L188.197 13.2254H190L190.022 28.946H187.911L187.889 16.6166H188.395L182.324 27.0371H181.312L175.198 16.6166H175.748V28.946H173.636Z" fill="white"/>
<path d="M201.571 28.946V26.4307L201.461 25.9591V21.6696C201.461 20.7563 201.197 20.0526 200.669 19.5586C200.156 19.0495 199.379 18.795 198.338 18.795C197.649 18.795 196.974 18.9148 196.314 19.1543C195.655 19.3789 195.097 19.6858 194.643 20.0751L193.763 18.4581C194.364 17.9641 195.083 17.5898 195.919 17.3352C196.769 17.0657 197.656 16.931 198.58 16.931C200.178 16.931 201.41 17.3277 202.275 18.1213C203.14 18.9148 203.573 20.1275 203.573 21.7594V28.946H201.571ZM197.744 29.0807C196.879 29.0807 196.116 28.931 195.457 28.6316C194.811 28.3321 194.313 27.9204 193.961 27.3964C193.609 26.8574 193.433 26.251 193.433 25.5773C193.433 24.9335 193.58 24.3496 193.873 23.8256C194.181 23.3016 194.672 22.8823 195.347 22.5679C196.036 22.2535 196.96 22.0963 198.118 22.0963H201.813V23.6459H198.206C197.15 23.6459 196.439 23.8256 196.072 24.1849C195.706 24.5442 195.523 24.9784 195.523 25.4875C195.523 26.0714 195.75 26.543 196.204 26.9023C196.659 27.2467 197.29 27.4189 198.096 27.4189C198.888 27.4189 199.577 27.2392 200.163 26.8799C200.765 26.5205 201.197 25.9965 201.461 25.3078L201.879 26.79C201.6 27.4937 201.109 28.0552 200.405 28.4744C199.702 28.8786 198.814 29.0807 197.744 29.0807Z" fill="white"/>
<path d="M207.48 28.946V17.0433H209.504V20.2772L209.306 19.4687C209.628 18.6453 210.171 18.0165 210.933 17.5823C211.696 17.1481 212.634 16.931 213.748 16.931V19.0196C213.66 19.0046 213.573 18.9971 213.485 18.9971C213.411 18.9971 213.338 18.9971 213.265 18.9971C212.136 18.9971 211.241 19.3415 210.581 20.0302C209.921 20.7189 209.592 21.7145 209.592 23.0171V28.946H207.48Z" fill="white"/>
<path d="M216.351 28.946V17.0433H218.462V28.946H216.351ZM217.407 14.7526C216.996 14.7526 216.651 14.6178 216.373 14.3483C216.109 14.0788 215.977 13.7494 215.977 13.3602C215.977 12.9559 216.109 12.6191 216.373 12.3496C216.651 12.0801 216.996 11.9453 217.407 11.9453C217.817 11.9453 218.154 12.0801 218.418 12.3496C218.697 12.6041 218.836 12.926 218.836 13.3152C218.836 13.7195 218.704 14.0638 218.44 14.3483C218.176 14.6178 217.832 14.7526 217.407 14.7526Z" fill="white"/>
<path d="M228.718 16.931C229.671 16.931 230.507 17.1181 231.226 17.4924C231.959 17.8667 232.531 18.4357 232.941 19.1992C233.352 19.9628 233.557 20.9285 233.557 22.0963V28.946H231.446V22.3434C231.446 21.1905 231.167 20.3221 230.61 19.7382C230.067 19.1543 229.297 18.8624 228.3 18.8624C227.553 18.8624 226.9 19.0121 226.343 19.3115C225.786 19.611 225.353 20.0526 225.045 20.6366C224.752 21.2205 224.605 21.9466 224.605 22.815V28.946H222.494V17.0433H224.517V20.2548L224.187 19.4014C224.569 18.6228 225.155 18.0165 225.947 17.5823C226.739 17.1481 227.663 16.931 228.718 16.931Z" fill="white"/>
<path d="M242.655 29.0807C241.409 29.0807 240.309 28.8187 239.356 28.2947C238.418 27.7707 237.685 27.052 237.157 26.1388C236.644 25.2255 236.387 24.1774 236.387 22.9946C236.387 21.8119 236.636 20.7638 237.135 19.8505C237.648 18.9372 238.344 18.2261 239.224 17.717C240.119 17.193 241.123 16.931 242.237 16.931C243.367 16.931 244.364 17.1855 245.229 17.6946C246.094 18.2036 246.768 18.9223 247.252 19.8505C247.751 20.7638 248 21.8343 248 23.062C248 23.1518 247.993 23.2566 247.978 23.3764C247.978 23.4962 247.971 23.6085 247.956 23.7133H238.037V22.1637H246.856L245.999 22.7027C246.013 21.9391 245.859 21.2579 245.537 20.659C245.214 20.0601 244.767 19.596 244.195 19.2666C243.638 18.9223 242.985 18.7501 242.237 18.7501C241.504 18.7501 240.852 18.9223 240.28 19.2666C239.708 19.596 239.261 20.0676 238.938 20.6815C238.616 21.2803 238.454 21.9691 238.454 22.7476V23.1069C238.454 23.9004 238.63 24.6116 238.982 25.2404C239.349 25.8543 239.855 26.3334 240.5 26.6777C241.145 27.0221 241.886 27.1943 242.721 27.1943C243.41 27.1943 244.034 27.0745 244.591 26.835C245.163 26.5954 245.661 26.2361 246.086 25.757L247.252 27.1494C246.724 27.7782 246.064 28.2573 245.273 28.5867C244.496 28.9161 243.623 29.0807 242.655 29.0807Z" fill="white"/>
<path d="M20.9867 0.0596473C21.0094 0.0927549 21.7236 0.556261 22.5626 1.08598C28.1065 4.63953 31.8592 9.62774 33.3104 15.3995C33.7525 17.1652 33.8319 17.9046 33.8319 20.1449C33.8206 21.9879 33.7752 22.5397 33.5711 23.4667C32.8909 26.5347 31.4284 29.3819 29.5464 31.3132L28.7528 32.1188H27.7211C24.8074 32.1188 22.4605 32.8141 20.0684 34.3812C19.0253 35.0544 17.1547 36.6215 17.2567 36.7208C17.2907 36.7428 17.5628 36.6215 17.8576 36.4449C18.6625 35.9593 21.1794 34.8999 22.4946 34.4915C23.855 34.0611 25.9298 33.6307 26.4173 33.6859L26.7801 33.719L26.1679 34.0942C25.8277 34.3039 25.533 34.5136 25.499 34.5467C25.2949 34.7785 23.8891 35.562 22.5172 36.2021C16.7805 38.8838 11.5767 39.5128 6.45222 38.1444C5.66994 37.9347 5.02371 37.7802 5.00104 37.7913C4.92167 37.8685 6.98507 38.6962 8.15282 39.0714C10.3636 39.7777 11.8375 39.9874 14.3884 39.9984C17.1207 40.0095 18.039 39.9653 19.2634 39.7777C19.7963 39.7005 20.6012 39.5791 21.0661 39.5128C21.837 39.4025 22.8347 39.1156 25.1248 38.321C25.635 38.1444 26.4059 37.7802 26.8254 37.5043C27.2449 37.2395 27.8004 36.8974 28.0499 36.7539C28.2993 36.6104 28.7641 36.3124 29.0816 36.0697C29.399 35.8379 29.7051 35.6503 29.7618 35.6503C29.9659 35.6503 32.29 33.4321 33.0156 32.5492C34.138 31.1808 35.3624 28.7418 35.9747 26.645C36.4848 24.8793 36.6436 23.7205 36.6436 21.5796C36.6549 18.0591 35.9407 15.0574 34.3534 11.868C31.9839 7.14467 27.8798 3.22694 22.71 0.765942C21.2928 0.0927549 20.8053 -0.116926 20.9867 0.0596473Z" fill="white"/>
<path d="M18.0617 2.94C18.1071 4.51813 18.1864 7.28813 18.2431 9.10905C18.2998 10.93 18.4019 14.2849 18.4699 16.5583C18.5946 21.0278 18.674 22.1534 18.81 22.01C18.8554 21.9548 19.0027 21.6016 19.1275 21.2154C19.3542 20.5643 19.3542 20.3987 19.2635 18.7323C19.2068 17.7501 19.1048 15.852 19.0368 14.5166C18.9801 13.1813 18.878 11.1948 18.81 10.1023C18.7193 8.46897 18.4359 2.97311 18.3225 0.732833C18.3112 0.379685 18.2431 0.170004 18.1411 0.136896C18.0051 0.0927527 17.9937 0.523151 18.0617 2.94Z" fill="white"/>
<path d="M17.1546 1.14116C16.3497 2.24474 15.3747 3.88908 14.6718 5.35685C14.1276 6.4494 12.8124 9.76016 12.4837 10.8196C12.4156 11.0293 12.1322 11.9232 11.8488 12.8061C11.5653 13.6889 11.0098 15.5209 10.6017 16.8893C9.7967 19.5821 9.27518 21.1271 8.73099 22.3962C8.2775 23.4557 7.29115 25.2655 7.00771 25.5635C6.89434 25.6849 6.7923 25.8173 6.7923 25.8504C6.7923 25.9277 9.56995 25.0338 10.0234 24.8131C10.2162 24.7138 10.9758 24.5041 11.7241 24.3275L13.0845 24.0075L11.8147 23.9523C11.1232 23.9192 10.511 23.864 10.4769 23.8199C10.4316 23.7757 10.579 23.4557 10.7944 23.1025C11.9848 21.1823 13.3226 18.0481 13.8895 15.8851C14.0482 15.256 14.2296 14.5497 14.2976 14.3069L14.3997 13.8876L15.2726 13.9648C15.7488 14.009 16.5084 14.1083 16.9392 14.1855C17.3814 14.2628 17.7442 14.318 17.7669 14.2959C17.8462 14.2187 16.6671 13.7662 15.6694 13.4903C14.8418 13.2696 14.6151 13.1592 14.6151 13.0047C14.6151 12.7178 15.5107 8.6014 15.6468 8.29239C15.7488 8.03857 15.7942 8.03857 16.6671 8.08271C17.6988 8.13789 17.6988 8.0496 16.6445 7.67438C16.225 7.53092 15.9075 7.35435 15.8849 7.25502C15.8282 6.99016 16.4517 6.73634 17.1093 6.73634C17.8462 6.73634 17.7555 6.5708 16.9052 6.39422C16.5538 6.31697 16.225 6.22869 16.1683 6.18454C16.0549 6.09626 16.7352 3.5249 17.336 1.79227C17.5968 1.04183 17.7895 0.412788 17.7669 0.390716C17.7442 0.368645 17.4721 0.710756 17.1546 1.14116Z" fill="white"/>
<path d="M19.6037 2.91793C19.6037 2.95104 19.7624 3.23797 19.9551 3.55801C20.6921 4.77196 21.8711 7.19985 22.6081 8.99869C23.5151 11.2169 24.9096 15.256 25.0456 16.0506C25.159 16.7459 26.1226 19.4055 27.3698 22.4624C28.4695 25.1662 28.7529 25.7953 28.9116 25.8836C29.093 26.005 29.9207 25.1221 29.9207 24.802C29.9207 24.1951 29.5012 23.6433 28.6622 23.1246L28.2541 22.8708L28.1747 21.4802C28.0613 19.4055 27.7212 17.6177 27.0636 15.7306C26.0773 12.8943 24.9436 10.5106 23.243 7.68542C22.7441 6.85773 22.3927 6.20662 22.4493 6.25076C22.6648 6.37216 24.286 8.54622 25.3177 10.0692C27.6305 13.5234 28.9797 16.2934 29.6372 18.9641C29.8073 19.6483 29.966 20.1891 29.9887 20.167C30.0794 20.0787 29.7959 18.3571 29.5239 17.3087C29.1044 15.7085 28.5488 14.318 27.4718 12.1991C26.3834 10.0471 26.0546 9.52841 24.6488 7.81785C23.2316 6.07419 19.6037 2.55375 19.6037 2.91793Z" fill="white"/>
<path d="M18.8099 5.78725C18.8099 5.80933 19.0253 6.2618 19.2747 6.80255C21.066 10.5658 21.7009 14.9029 20.964 18.3792C20.4198 20.9726 19.0253 23.6653 17.2226 25.6518C16.8372 26.0601 16.5537 26.4243 16.5764 26.4464C16.5991 26.4685 17.0412 26.3029 17.5741 26.0822C18.0956 25.8615 19.2407 25.4421 20.1137 25.1552C21.8029 24.5924 21.9163 24.5261 20.7372 24.78C19.4334 25.0559 19.4334 25.0448 20.7372 23.7647C23.1294 21.3809 24.0704 19.4496 24.0591 16.8893C24.0591 14.3732 22.9593 11.3493 20.998 8.4469C20.125 7.16674 18.8099 5.5555 18.8099 5.78725Z" fill="white"/>
<path d="M14.5017 25.2214C13.4133 25.3538 11.1231 25.6297 9.43386 25.8394C7.73326 26.0381 6.33877 26.2367 6.33877 26.2808C6.33877 26.314 8.42484 26.3802 10.9871 26.4354L15.6354 26.5126L16.0775 26.1595C16.327 25.9718 16.6898 25.6187 16.8825 25.3869L17.2453 24.9455L16.8598 24.9565C16.6558 24.9676 15.59 25.0779 14.5017 25.2214Z" fill="white"/>
<path d="M23.4017 25.5635C23.2203 25.5856 22.6081 25.6628 22.0412 25.7291C20.6467 25.8946 18.4133 26.336 17.4156 26.645L16.5993 26.8989L19.7171 26.8437C21.429 26.8216 23.5604 26.8437 24.4447 26.9099C25.8846 27.0092 26.1454 26.9982 26.905 26.8216C28.0727 26.5347 28.6282 26.2919 28.4808 26.1484C28.1747 25.8505 26.7802 25.5966 25.2724 25.5525C24.4334 25.5304 23.5944 25.5304 23.4017 25.5635Z" fill="white"/>
<path d="M17.7896 27.2299C14.3997 27.3403 6.80371 27.8811 6.679 28.0024C6.64499 28.0356 7.39326 28.0356 8.32292 27.9914C12.4724 27.8148 21.0321 27.7045 24.8868 27.7707C28.5487 27.8369 29.1043 27.8259 29.1496 27.6824C29.3083 27.3072 29.0929 27.263 26.9162 27.2741C25.7257 27.2741 23.4129 27.263 21.7577 27.241C20.1024 27.2079 18.3225 27.2079 17.7896 27.2299Z" fill="white"/>
<path d="M4.10544 30.6621C4.2755 30.8276 4.41155 31.0042 4.41155 31.0373C4.41155 31.0704 4.16212 31.1256 3.84468 31.1697C3.43653 31.2249 3.27781 31.2911 3.27781 31.4236C3.27781 31.6332 3.43653 31.6001 4.72899 31.1366C5.23917 30.949 5.99877 30.7393 6.42959 30.6731C6.84907 30.5959 7.23454 30.4965 7.30257 30.4414C7.35926 30.3972 6.59965 30.3531 5.60197 30.3531H3.79933L4.10544 30.6621Z" fill="white"/>
<path d="M10.5337 30.4524C10.3977 30.5407 10.443 30.5738 10.7151 30.5738C11.2026 30.5738 12.9712 30.938 14.1843 31.2801C15.08 31.5339 15.2047 31.545 15.6015 31.4125C16.7806 31.0042 18.2658 30.8497 20.794 30.8607C23.4469 30.8607 24.3313 30.9601 26.5534 31.5339C27.6418 31.8098 27.6871 31.8098 28.1066 31.6222C28.4807 31.4567 28.5601 31.3684 28.6168 30.9932C28.6621 30.7504 28.6621 30.5297 28.6168 30.4855C28.4921 30.3531 10.7264 30.331 10.5337 30.4524Z" fill="white"/>
<path d="M6.645 30.9049C5.06911 31.1808 3.16444 31.9643 1.97402 32.8361C0.908307 33.6197 -0.248102 34.7674 0.0466687 34.7674C0.103355 34.7674 1.22575 34.1936 1.74727 33.8846C4.03741 32.5713 8.31159 31.8981 11.3273 32.3837L12.4611 32.5713L13.4928 32.1519C14.4904 31.7436 14.5018 31.7326 14.1957 31.6112C14.0256 31.5339 13.266 31.3463 12.5177 31.1808C11.3613 30.9159 10.8512 30.8718 9.17323 30.8387C8.08485 30.8166 6.93978 30.8497 6.645 30.9049Z" fill="white"/>
<path d="M18.2431 31.1918C16.4291 31.5008 15.7489 31.6553 14.7852 31.9753C12.7671 32.6596 10.7831 33.7742 9.0825 35.1868C8.75371 35.4627 8.50429 35.7055 8.5383 35.7275C8.56098 35.7607 8.91244 35.573 9.30924 35.3303C11.1912 34.1715 14.2297 33.09 16.1457 32.8803C16.5878 32.8361 17.4268 32.7479 18.0163 32.6816C19.2408 32.5492 21.0434 32.5382 22.0297 32.6596C22.6079 32.7258 22.8347 32.6927 23.617 32.4389C24.1272 32.2623 24.9434 32.0636 25.4423 31.9753C25.9298 31.8981 26.2926 31.7988 26.2246 31.7657C26.1679 31.7215 25.5557 31.5891 24.8754 31.4567C23.8664 31.258 23.1295 31.2028 21.0774 31.1808C19.6716 31.1587 18.4018 31.1587 18.2431 31.1918Z" fill="white"/>
</svg>
