<svg width="251" height="40" viewBox="0 0 251 40" fill="none" xmlns="http://www.w3.org/2000/svg">
<path fill-rule="evenodd" clip-rule="evenodd" d="M20.7885 0C20.8131 0 20.8378 0 20.8625 0C22.8727 1.64817 24.829 3.36583 26.7316 5.153C28.7569 7.16259 30.635 9.28825 32.3664 11.53C34.2167 14.0509 35.8112 16.7355 37.1505 19.5838C37.5791 20.541 37.9736 21.5121 38.3342 22.4969C38.7055 23.5541 39.0673 24.6149 39.4192 25.6793C40.0863 27.9951 40.596 30.3452 40.9481 32.7295C41.0983 33.7195 41.2421 34.707 41.3797 35.6916C41.3797 35.7731 41.3797 35.8548 41.3797 35.9364C39.0047 36.7481 36.6045 37.4783 34.1789 38.1273C31.5797 38.7493 28.9574 39.2553 26.3123 39.645C24.8922 39.8316 23.4701 39.9498 22.0461 40C20.9611 40 19.8761 40 18.791 40C16.4056 39.9141 14.0382 39.6409 11.6889 39.1799C9.32335 38.7743 6.99706 38.2113 4.71008 37.4908C3.13001 36.9993 1.55998 36.481 0 35.9364C0 35.8465 0 35.7569 0 35.6671C0.286911 32.9953 0.718463 30.3432 1.29466 27.7111C2.00859 24.9403 2.96212 22.2556 4.15523 19.6573C5.8409 16.2098 7.8959 13.0111 10.3203 10.0612C11.1258 9.13097 11.9314 8.20073 12.7369 7.2705C13.8009 6.14093 14.9064 5.05158 16.0537 4.00245C17.6005 2.62573 19.1787 1.29157 20.7885 0ZM20.8131 1.19951C23.0776 3.05444 25.2517 5.021 27.3357 7.09914C28.9234 8.81351 30.4276 10.5924 31.8485 12.4357C33.7656 15.1145 35.3932 17.9705 36.7312 21.0037C37.6333 23.2335 38.3978 25.5102 39.0246 27.8335C39.6076 30.2906 40.0392 32.7714 40.3193 35.2754C37.7509 36.1638 35.1451 36.9268 32.502 37.5643C29.9902 38.1131 27.4585 38.5457 24.9067 38.8617C20.4343 39.2991 15.9955 39.0788 11.5903 38.2007C8.97759 37.7319 6.41294 37.0791 3.8963 36.2424C2.93818 35.9322 1.98466 35.6098 1.03572 35.2754C1.27633 32.8654 1.65857 30.4744 2.18242 28.1028C2.79636 25.6624 3.60191 23.2879 4.59911 20.9792C6.28189 17.3253 8.38624 13.9471 10.9121 10.8446C11.7978 9.78566 12.7021 8.74118 13.6247 7.71114C15.1044 6.16872 16.6539 4.70401 18.2731 3.31701C19.1173 2.60529 19.964 1.89945 20.8131 1.19951Z" fill="#FEFFFE"/>
<path fill-rule="evenodd" clip-rule="evenodd" d="M21.0847 2.7907C21.1459 2.78636 21.1911 2.81084 21.2204 2.86414C22.5788 4.90017 23.9433 6.93199 25.3139 8.95961C25.365 9.04431 25.402 9.13405 25.4249 9.22889C25.3929 9.40279 25.2861 9.47623 25.1043 9.4492C24.6656 9.43417 24.2382 9.35667 23.822 9.21665C23.5248 9.12509 23.2289 9.03126 22.9342 8.93513C22.843 8.97263 22.7814 9.03792 22.7493 9.13097C22.6496 9.54331 22.5345 9.95131 22.4041 10.355C22.3677 10.4935 22.2854 10.5914 22.1574 10.6487C22.0916 10.5913 22.0587 10.5179 22.0588 10.4284C21.726 7.88326 21.4013 5.33736 21.0847 2.7907Z" fill="#FEFFFE"/>
<path fill-rule="evenodd" clip-rule="evenodd" d="M23.1562 9.96328C23.1981 9.95936 23.2392 9.96343 23.2795 9.97552C23.8366 11.1368 24.2517 12.3486 24.5248 13.6108C24.638 14.1235 24.7448 14.6376 24.8454 15.153C24.9112 15.709 24.9852 16.2639 25.0673 16.8176C26.1095 16.4947 27.1575 16.1887 28.2115 15.8996C28.7538 15.8407 29.2963 15.7836 29.8391 15.7283C30.4884 15.7119 31.1379 15.7119 31.7872 15.7283C32.3445 15.7704 32.8335 15.9704 33.2545 16.328C33.3366 16.4423 33.419 16.5565 33.5011 16.6707C33.6639 17.0196 33.742 17.3868 33.7354 17.7723C33.7529 18.347 33.6584 18.9019 33.4518 19.437C33.2829 19.8295 33.0937 20.213 32.8846 20.5875C31.6888 22.5795 30.1638 24.289 28.3101 25.716C27.7935 26.0901 27.2838 26.4737 26.7812 26.8666C26.6831 26.9278 26.6091 26.9075 26.5593 26.8054C26.9529 25.6759 27.0801 24.5173 26.9415 23.3293C26.8621 23.0631 26.7307 22.8265 26.5469 22.6193C26.2555 22.2645 25.9184 21.9625 25.5359 21.7136C25.5608 22.9785 25.5443 24.2433 25.4866 25.508C25.3507 26.8649 25.2232 28.2193 25.1043 29.5716C26.5751 30.375 28.0793 31.1136 29.6171 31.787C30.3217 32.0502 31.0205 32.3275 31.7132 32.6193C31.8558 32.6526 31.8886 32.7261 31.8119 32.8397C30.4921 32.7376 29.2016 32.4847 27.9402 32.0808C26.8858 31.7613 25.8582 31.3738 24.8577 30.918C24.5795 31.9819 24.3041 33.0509 24.0316 34.1248C23.7782 34.7165 23.5151 35.304 23.2425 35.8874C23.0041 36.2955 22.7657 36.7033 22.5273 37.1114C22.2935 37.4659 22.0016 37.7638 21.6519 38.0049C21.1455 38.2847 20.6194 38.3256 20.0737 38.1273C19.609 37.9009 19.1733 37.6316 18.7667 37.3195C18.5343 37.082 18.3165 36.833 18.1132 36.5728C17.4088 35.5089 16.8416 34.3748 16.4116 33.1701C16.0284 32.1953 15.749 31.1917 15.5732 30.1591C15.4316 29.2553 15.3042 28.3496 15.191 27.4419C15.1904 27.3816 15.2028 27.3244 15.228 27.2705C15.2559 27.2286 15.2929 27.2164 15.3389 27.2338C15.6776 27.6191 16.0475 27.9699 16.4486 28.2864C16.8552 28.5741 17.2745 28.8433 17.7063 29.0942C17.8815 29.1812 18.0624 29.2546 18.2488 29.3146C18.9879 29.3657 19.6866 29.2189 20.3449 28.8739C19.2683 28.2908 18.2162 27.6705 17.1884 27.0135C16.026 26.19 14.8669 25.3618 13.7114 24.5288C12.2127 25.4333 10.7578 26.4002 9.34652 27.4296C8.7948 27.893 8.22352 28.3295 7.63264 28.7393C7.61111 28.7334 7.59054 28.7253 7.57099 28.7148C7.5427 28.6595 7.53858 28.6022 7.55866 28.5435C8.29787 27.5312 9.13219 26.5968 10.0617 25.7405C10.374 25.4632 10.6864 25.1856 10.9987 24.9082C11.5465 24.4744 12.0973 24.046 12.651 23.623C11.8868 22.8848 11.1182 22.1505 10.3453 21.4198C10.0329 20.9955 9.72054 20.5712 9.40817 20.1469C9.06892 19.6122 8.74833 19.0655 8.44642 18.5067C8.38065 18.3272 8.31491 18.1477 8.24914 17.9682C8.01546 17.0248 8.3155 16.3027 9.14923 15.8017C9.51997 15.5892 9.9063 15.4096 10.3083 15.2632C10.8965 15.1285 11.4924 15.0673 12.0961 15.0796C14.2745 15.1129 16.3829 15.5086 18.4214 16.2668C19.1284 16.5524 19.8353 16.838 20.5422 17.1236C20.6104 17.1595 20.6721 17.2044 20.7272 17.2583C20.7436 17.2991 20.7436 17.3399 20.7272 17.3807C20.2277 17.4873 19.7386 17.6301 19.2599 17.8091C18.7684 18.0285 18.2917 18.2733 17.8296 18.5435C17.6345 18.683 17.4578 18.8421 17.2994 19.0208C17.0056 19.5486 16.8453 20.1117 16.8185 20.7099C17.7521 20.1445 18.7056 19.61 19.6791 19.1065C21.0295 18.477 22.3858 17.8609 23.748 17.2583C23.7319 15.7375 23.6456 14.2197 23.4891 12.705C23.3713 11.8976 23.2563 11.0897 23.1439 10.2815C23.1249 10.1733 23.129 10.0672 23.1562 9.96328ZM22.7613 21.224C22.4679 21.2398 22.172 21.2683 21.8735 21.3097C20.3542 21.6296 18.8746 22.0784 17.4347 22.6561C17.3922 22.6689 17.3593 22.6933 17.3361 22.7295C17.5646 23.253 17.8647 23.7303 18.2362 24.1616C19.3105 25.3425 20.4781 26.4196 21.7382 27.3929C21.8325 27.2874 21.9144 27.1731 21.9845 27.0502C22.2935 26.481 22.5401 25.8854 22.7243 25.2632C23.0947 23.9428 23.3783 22.6045 23.5751 21.2485C23.3043 21.224 23.033 21.2159 22.7613 21.224Z" fill="#6190BB"/>
<path fill-rule="evenodd" clip-rule="evenodd" d="M23.2055 10.0367C23.2856 10.1385 23.3473 10.2528 23.3905 10.3794C24.0354 11.9159 24.4876 13.5071 24.7468 15.153C24.9194 16.4911 25.092 17.8294 25.2646 19.1677C25.4984 21.3926 25.5312 23.6202 25.3633 25.8507C25.2521 27.0769 25.1246 28.3009 24.981 29.5226C23.9089 28.8661 22.8567 28.1807 21.8245 27.4663C22.3008 26.7244 22.6502 25.9248 22.8726 25.0673C23.3062 23.5352 23.5939 21.9766 23.7357 20.3917C23.8626 18.8589 23.8873 17.3248 23.8097 15.7895C23.7646 14.7592 23.6906 13.7311 23.5877 12.705C23.4502 11.8171 23.3228 10.9276 23.2055 10.0367Z" fill="#FEFEFE"/>
<path fill-rule="evenodd" clip-rule="evenodd" d="M11.6399 15.1775C12.2074 15.1764 12.7746 15.1886 13.3415 15.2142C14.3179 15.3322 15.2879 15.4873 16.2514 15.6793C17.7666 16.0932 19.2298 16.6358 20.6409 17.3072C19.5014 17.5464 18.4575 17.9993 17.509 18.6659C17.2638 18.8851 17.087 19.1503 16.9788 19.4614C16.8999 19.7048 16.8259 19.9496 16.7569 20.1958C16.7272 20.4079 16.6984 20.6201 16.6706 20.8323C15.323 21.6847 14.0201 22.5987 12.762 23.5741C11.9499 22.8333 11.1526 22.0744 10.3699 21.2974C10 20.7834 9.63012 20.2693 9.26022 19.7552C9.0363 19.3514 8.80612 18.9516 8.56973 18.5557C8.46436 18.2989 8.37393 18.0378 8.29847 17.7723C8.2512 17.4948 8.2512 17.2173 8.29847 16.94C8.36424 16.7931 8.42998 16.6463 8.49575 16.4994C8.62399 16.3803 8.74317 16.2538 8.85332 16.12C9.2412 15.8539 9.65219 15.6254 10.0863 15.4345C10.5959 15.2795 11.1137 15.1938 11.6399 15.1775Z" fill="#FEFEFE"/>
<path fill-rule="evenodd" clip-rule="evenodd" d="M29.9377 15.7895C30.5133 15.7854 31.0886 15.7895 31.6639 15.8017C32.2195 15.8289 32.7127 16.0125 33.1435 16.3525C33.238 16.4749 33.3327 16.5973 33.4271 16.7197C33.618 17.1578 33.6836 17.6147 33.6244 18.0906C33.6259 18.3883 33.5931 18.6821 33.5258 18.9718C33.402 19.3327 33.254 19.6835 33.0819 20.0245C32.8148 20.5058 32.5354 20.9791 32.2434 21.4443C31.5399 22.4123 30.7715 23.3303 29.9377 24.1983C28.9062 25.1368 27.8211 26.0059 26.6826 26.8054C26.7679 26.4502 26.8626 26.0911 26.9662 25.7283C27.036 25.1672 27.0811 24.6042 27.1018 24.0392C27.1484 23.5054 27.0044 23.0321 26.6703 22.6193C26.3366 22.2145 25.9502 21.8717 25.5112 21.5912C25.4412 20.0239 25.2893 18.4654 25.055 16.9155C25.1689 16.8683 25.2839 16.8235 25.4003 16.7809C26.3307 16.5235 27.2594 16.2624 28.1868 15.9976C28.7752 15.9379 29.3589 15.8686 29.9377 15.7895Z" fill="#FEFEFE"/>
<path fill-rule="evenodd" clip-rule="evenodd" d="M23.7234 17.3562C23.7562 17.5145 23.7726 17.6817 23.7727 17.858C23.7686 18.0253 23.7645 18.1926 23.7604 18.3599C23.726 19.2914 23.6726 20.2216 23.6001 21.1506C23.0816 21.1418 22.5637 21.154 22.0465 21.1873C20.2206 21.5358 18.4615 22.0906 16.7692 22.8519C15.4665 23.4576 14.2007 24.1267 12.9716 24.8592C11.7212 25.6355 10.5046 26.4597 9.32186 27.3317C8.78457 27.7819 8.23383 28.2144 7.66963 28.6291C7.65318 28.6455 7.63676 28.6455 7.62031 28.6291C8.40063 27.5684 9.28018 26.5892 10.2589 25.6916C10.617 25.3873 10.9705 25.0771 11.3193 24.7613C12.3513 23.9921 13.3788 23.2169 14.4018 22.4357C15.6527 21.5537 16.9432 20.7295 18.2735 19.9633C18.9233 19.6081 19.5809 19.2654 20.2463 18.9351C21.4134 18.421 22.5725 17.8947 23.7234 17.3562Z" fill="#FEFEFE"/>
<path fill-rule="evenodd" clip-rule="evenodd" d="M17.1638 22.7417C17.1928 22.7364 17.2174 22.7445 17.2378 22.7662C17.4162 23.1453 17.6258 23.5043 17.8666 23.8433C18.1038 24.1588 18.3586 24.4608 18.6311 24.7491C19.6543 25.7897 20.7434 26.7486 21.8985 27.6255C23.1228 28.4781 24.3887 29.2698 25.6962 30C26.8505 30.5973 28.0177 31.1687 29.1979 31.7136C30.0561 32.0534 30.9108 32.4 31.7626 32.754C30.5663 32.648 29.391 32.4235 28.2362 32.0808C27.6409 31.8947 27.049 31.6989 26.4606 31.4933C24.9477 30.8688 23.4435 30.2242 21.9478 29.5594C20.2754 28.7696 18.6725 27.872 17.1391 26.8666C16.1159 26.1344 15.0885 25.4081 14.0566 24.6879C13.9625 24.623 13.8804 24.5457 13.81 24.4553C14.9155 23.8577 16.0335 23.2865 17.1638 22.7417Z" fill="#FEFEFE"/>
<path fill-rule="evenodd" clip-rule="evenodd" d="M5.94342 27.0747C6.01935 27.0688 6.09333 27.0769 6.16536 27.0991C6.37283 27.3696 6.51667 27.6715 6.59691 28.0049C6.71499 28.433 6.81363 28.8654 6.89283 29.3023C6.90137 29.3599 6.93014 29.4047 6.97914 29.437C7.06134 29.4534 7.14355 29.4534 7.22575 29.437C7.66647 29.3021 8.11447 29.2 8.56972 29.131C8.66461 29.1271 8.74269 29.1599 8.80399 29.2289C8.79166 29.2534 8.77933 29.2778 8.767 29.3023C6.68322 30.8649 4.59944 32.4277 2.51566 33.9902C2.48378 34.0022 2.45089 34.0064 2.41702 34.0024C2.41316 33.9689 2.41727 33.9361 2.42935 33.9045C3.55358 31.6969 4.6715 29.4857 5.78313 27.2705C5.83139 27.198 5.88483 27.1327 5.94342 27.0747Z" fill="#FEFFFE"/>
<path fill-rule="evenodd" clip-rule="evenodd" d="M15.2896 27.3195C15.6398 27.7038 16.018 28.0588 16.424 28.3843C16.7199 28.5802 17.0158 28.776 17.3117 28.9718C17.5775 29.1364 17.8569 29.2752 18.1502 29.388C18.5048 29.4695 18.8583 29.4614 19.2106 29.3635C19.658 29.2913 20.0772 29.1403 20.4682 28.9106C21.8518 29.6218 23.2657 30.2666 24.7098 30.8446C24.7179 30.861 24.7263 30.8771 24.7344 30.8935C24.4778 32.0186 24.1942 33.1366 23.8837 34.2472C23.6336 34.8042 23.3788 35.3591 23.1192 35.9119C22.8808 36.32 22.6424 36.7278 22.4041 37.1359C22.2797 37.2676 22.1646 37.4061 22.0588 37.552C21.3447 38.2588 20.5515 38.3528 19.6791 37.8335C19.3139 37.6176 18.9727 37.3687 18.6557 37.0869C18.0097 36.2947 17.4754 35.4299 17.0528 34.492C16.6852 33.6421 16.3564 32.777 16.0664 31.8972C15.6849 30.3917 15.426 28.8659 15.2896 27.3195Z" fill="#FEFEFE"/>
<path fill-rule="evenodd" clip-rule="evenodd" d="M31.6393 31.4321C31.7241 31.4272 31.8062 31.4394 31.8859 31.4688C34.2523 32.4543 36.6196 33.4377 38.988 34.4186C39.0109 34.4477 39.0191 34.4803 39.0126 34.5165C36.4971 34.6744 33.9817 34.8375 31.4666 35.0061C31.2844 35.0301 31.1692 34.9567 31.1214 34.7858C31.2294 34.5141 31.3816 34.2693 31.5776 34.0514C31.9253 33.6818 32.2952 33.339 32.6873 33.0233C32.7196 32.9834 32.7401 32.9383 32.749 32.8886C32.7251 32.7993 32.6797 32.7219 32.6133 32.6561C32.2489 32.3515 31.9283 32.0088 31.6516 31.6279C31.6393 31.563 31.6353 31.4979 31.6393 31.4321Z" fill="#FEFFFE"/>
<path d="M54.4538 30.6789V14.8122H60.6487C62.0405 14.8122 63.2281 15.0314 64.2114 15.4696C65.1947 15.9078 65.9511 16.5425 66.4806 17.3736C67.0101 18.2047 67.2748 19.1945 67.2748 20.3429C67.2748 21.4914 67.0101 22.4811 66.4806 23.3122C65.9511 24.1282 65.1947 24.7629 64.2114 25.2162C63.2281 25.6545 62.0405 25.8736 60.6487 25.8736H55.7018L56.723 24.8082V30.6789H54.4538ZM56.723 25.0349L55.7018 23.9016H60.5806C62.0329 23.9016 63.1297 23.5918 63.871 22.9722C64.6274 22.3527 65.0056 21.4762 65.0056 20.3429C65.0056 19.2096 64.6274 18.3331 63.871 17.7136C63.1297 17.094 62.0329 16.7842 60.5806 16.7842H55.7018L56.723 15.6509V25.0349Z" fill="white"/>
<path d="M70.2856 30.6789V13.8602H72.464V30.6789H70.2856Z" fill="white"/>
<path d="M83.8622 30.6789V28.1402L83.7487 27.6642V23.3349C83.7487 22.4131 83.4764 21.7029 82.9318 21.2042C82.4023 20.6905 81.6005 20.4336 80.5265 20.4336C79.8154 20.4336 79.1195 20.5545 78.4388 20.7962C77.758 21.0229 77.1832 21.3327 76.7142 21.7256L75.8065 20.0936C76.4268 19.5949 77.168 19.2171 78.0303 18.9602C78.9077 18.6882 79.823 18.5522 80.7761 18.5522C82.425 18.5522 83.6958 18.9527 84.5883 19.7536C85.4809 20.5545 85.9272 21.7785 85.9272 23.4256V30.6789H83.8622ZM79.9138 30.8149C79.0212 30.8149 78.2346 30.6638 77.5538 30.3616C76.8882 30.0594 76.3738 29.6438 76.0107 29.1149C75.6477 28.5709 75.4661 27.9589 75.4661 27.2789C75.4661 26.6291 75.6174 26.0398 75.92 25.5109C76.2376 24.982 76.7444 24.5589 77.4403 24.2416C78.1513 23.9242 79.1044 23.7656 80.2995 23.7656H84.1118V25.3296H80.3903C79.3011 25.3296 78.5674 25.5109 78.1892 25.8736C77.811 26.2362 77.6219 26.6745 77.6219 27.1882C77.6219 27.7776 77.8563 28.2536 78.3253 28.6162C78.7943 28.9638 79.4448 29.1376 80.2768 29.1376C81.0938 29.1376 81.8048 28.9562 82.4099 28.5936C83.0301 28.2309 83.4764 27.702 83.7487 27.0069L84.1799 28.5029C83.8924 29.2131 83.3857 29.7798 82.6595 30.2029C81.9334 30.6109 81.0181 30.8149 79.9138 30.8149Z" fill="white"/>
<path d="M93.1808 30.8149C92.1824 30.8149 91.2293 30.6789 90.3216 30.4069C89.4291 30.1349 88.7256 29.8025 88.2113 29.4096L89.1189 27.6869C89.6333 28.0345 90.2687 28.3291 91.0251 28.5709C91.7815 28.8127 92.553 28.9336 93.3397 28.9336C94.3532 28.9336 95.0794 28.79 95.5181 28.5029C95.972 28.2158 96.1989 27.8154 96.1989 27.3016C96.1989 26.9238 96.0627 26.6291 95.7904 26.4176C95.5181 26.206 95.155 26.0474 94.7012 25.9416C94.2625 25.8358 93.7708 25.7451 93.2262 25.6696C92.6816 25.5789 92.137 25.4731 91.5924 25.3522C91.0478 25.2162 90.5485 25.0349 90.0947 24.8082C89.6409 24.5665 89.2778 24.2416 89.0055 23.8336C88.7332 23.4105 88.597 22.8514 88.597 22.1562C88.597 21.4309 88.8013 20.7962 89.2097 20.2522C89.6182 19.7082 90.193 19.2927 90.9343 19.0056C91.6907 18.7034 92.5833 18.5522 93.612 18.5522C94.3986 18.5522 95.1929 18.6505 95.9946 18.8469C96.8116 19.0282 97.4772 19.2927 97.9915 19.6402L97.0612 21.3629C96.5166 21.0002 95.9493 20.7509 95.3593 20.6149C94.7693 20.4789 94.1793 20.4109 93.5893 20.4109C92.6362 20.4109 91.9252 20.5696 91.4562 20.8869C90.9873 21.1891 90.7528 21.582 90.7528 22.0656C90.7528 22.4736 90.8889 22.7909 91.1612 23.0176C91.4487 23.2291 91.8117 23.3954 92.2505 23.5162C92.7043 23.6371 93.2035 23.7429 93.7481 23.8336C94.2927 23.9091 94.8373 24.0149 95.382 24.1509C95.9266 24.2718 96.4182 24.4456 96.8569 24.6722C97.3108 24.8989 97.6739 25.2162 97.9462 25.6242C98.2336 26.0322 98.3773 26.5762 98.3773 27.2562C98.3773 27.9816 98.1655 28.6087 97.7419 29.1376C97.3184 29.6665 96.7208 30.082 95.9493 30.3842C95.1777 30.6714 94.2549 30.8149 93.1808 30.8149Z" fill="white"/>
<path d="M105.003 30.8149C103.793 30.8149 102.855 30.49 102.189 29.8402C101.523 29.1905 101.191 28.2611 101.191 27.0522V16.0362H103.369V26.9616C103.369 27.6114 103.528 28.11 103.846 28.4576C104.178 28.8051 104.647 28.9789 105.252 28.9789C105.933 28.9789 106.501 28.79 106.954 28.4122L107.635 29.9762C107.302 30.2634 106.901 30.4749 106.432 30.6109C105.979 30.7469 105.502 30.8149 105.003 30.8149ZM99.1483 20.4562V18.6656H106.818V20.4562H99.1483Z" fill="white"/>
<path d="M119.381 30.6789V16.7842H113.935V14.8122H127.074V16.7842H121.627V30.6789H119.381Z" fill="white"/>
<path d="M133.115 30.8149C131.829 30.8149 130.694 30.5505 129.711 30.0216C128.743 29.4927 127.986 28.7674 127.442 27.8456C126.912 26.9238 126.648 25.866 126.648 24.6722C126.648 23.4785 126.905 22.4207 127.419 21.4989C127.949 20.5771 128.667 19.8594 129.575 19.3456C130.498 18.8167 131.534 18.5522 132.684 18.5522C133.849 18.5522 134.877 18.8091 135.77 19.3229C136.662 19.8367 137.358 20.562 137.857 21.4989C138.372 22.4207 138.629 23.5011 138.629 24.7402C138.629 24.8309 138.621 24.9367 138.606 25.0576C138.606 25.1785 138.599 25.2918 138.584 25.3976H128.349V23.8336H137.449L136.564 24.3776C136.579 23.6069 136.42 22.9194 136.087 22.3149C135.755 21.7105 135.293 21.242 134.703 20.9096C134.128 20.562 133.455 20.3882 132.684 20.3882C131.927 20.3882 131.254 20.562 130.664 20.9096C130.074 21.242 129.613 21.718 129.28 22.3376C128.947 22.942 128.781 23.6371 128.781 24.4229V24.7856C128.781 25.5865 128.962 26.3042 129.325 26.9389C129.703 27.5585 130.225 28.042 130.891 28.3896C131.557 28.7371 132.321 28.9109 133.183 28.9109C133.894 28.9109 134.537 28.79 135.112 28.5482C135.702 28.3065 136.216 27.9438 136.655 27.4602L137.857 28.8656C137.313 29.5002 136.632 29.9838 135.815 30.3162C135.013 30.6487 134.113 30.8149 133.115 30.8149Z" fill="white"/>
<path d="M146.669 30.8149C145.444 30.8149 144.347 30.5505 143.379 30.0216C142.425 29.4927 141.677 28.7674 141.132 27.8456C140.587 26.9238 140.315 25.866 140.315 24.6722C140.315 23.4785 140.587 22.4207 141.132 21.4989C141.677 20.5771 142.425 19.8594 143.379 19.3456C144.347 18.8167 145.444 18.5522 146.669 18.5522C147.758 18.5522 148.726 18.7714 149.573 19.2096C150.436 19.6327 151.101 20.2674 151.57 21.1136L149.914 22.1789C149.521 21.5896 149.036 21.1589 148.462 20.8869C147.902 20.5998 147.297 20.4562 146.646 20.4562C145.86 20.4562 145.156 20.63 144.536 20.9776C143.916 21.3251 143.424 21.8162 143.061 22.4509C142.698 23.0705 142.516 23.8109 142.516 24.6722C142.516 25.5336 142.698 26.2816 143.061 26.9162C143.424 27.5509 143.916 28.042 144.536 28.3896C145.156 28.7371 145.86 28.9109 146.646 28.9109C147.297 28.9109 147.902 28.7749 148.462 28.5029C149.036 28.2158 149.521 27.7776 149.914 27.1882L151.57 28.2309C151.101 29.062 150.436 29.7042 149.573 30.1576C148.726 30.5958 147.758 30.8149 146.669 30.8149Z" fill="white"/>
<path d="M160.431 18.5522C161.414 18.5522 162.276 18.7411 163.017 19.1189C163.774 19.4967 164.364 20.0709 164.787 20.8416C165.211 21.6122 165.423 22.5869 165.423 23.7656V30.6789H163.244V24.0149C163.244 22.8514 162.957 21.9749 162.382 21.3856C161.822 20.7962 161.028 20.5016 159.999 20.5016C159.228 20.5016 158.555 20.6527 157.98 20.9549C157.405 21.2571 156.959 21.7029 156.641 22.2922C156.338 22.8816 156.187 23.6145 156.187 24.4909V30.6789H154.009V13.8602H156.187V21.9069L155.756 21.0456C156.149 20.2598 156.754 19.6478 157.571 19.2096C158.388 18.7714 159.341 18.5522 160.431 18.5522Z" fill="white"/>
<path d="M175.412 30.6789V14.8122H177.273L184.398 26.8029H183.4L190.434 14.8122H192.295L192.318 30.6789H190.139L190.117 18.2349H190.639L184.376 28.7522H183.332L177.023 18.2349H177.591V30.6789H175.412Z" fill="white"/>
<path d="M204.006 30.6789V28.1402L203.893 27.6642V23.3349C203.893 22.4131 203.62 21.7029 203.076 21.2042C202.546 20.6905 201.744 20.4336 200.67 20.4336C199.959 20.4336 199.263 20.5545 198.583 20.7962C197.902 21.0229 197.327 21.3327 196.858 21.7256L195.95 20.0936C196.571 19.5949 197.312 19.2171 198.174 18.9602C199.052 18.6882 199.967 18.5522 200.92 18.5522C202.569 18.5522 203.84 18.9527 204.732 19.7536C205.625 20.5545 206.071 21.7785 206.071 23.4256V30.6789H204.006ZM200.058 30.8149C199.165 30.8149 198.378 30.6638 197.698 30.3616C197.032 30.0594 196.518 29.6438 196.155 29.1149C195.792 28.5709 195.61 27.9589 195.61 27.2789C195.61 26.6291 195.761 26.0398 196.064 25.5109C196.382 24.982 196.888 24.5589 197.584 24.2416C198.295 23.9242 199.248 23.7656 200.443 23.7656H204.256V25.3296H200.534C199.445 25.3296 198.711 25.5109 198.333 25.8736C197.955 26.2362 197.766 26.6745 197.766 27.1882C197.766 27.7776 198 28.2536 198.469 28.6162C198.938 28.9638 199.589 29.1376 200.421 29.1376C201.238 29.1376 201.949 28.9562 202.554 28.5936C203.174 28.2309 203.62 27.702 203.893 27.0069L204.324 28.5029C204.036 29.2131 203.53 29.7798 202.803 30.2029C202.077 30.6109 201.162 30.8149 200.058 30.8149Z" fill="white"/>
<path d="M209.876 30.6789V18.6656H211.963V21.9296L211.759 21.1136C212.092 20.2825 212.652 19.6478 213.438 19.2096C214.225 18.7714 215.193 18.5522 216.343 18.5522V20.6602C216.252 20.6451 216.161 20.6376 216.07 20.6376C215.995 20.6376 215.919 20.6376 215.844 20.6376C214.679 20.6376 213.756 20.9851 213.075 21.6802C212.394 22.3754 212.054 23.3802 212.054 24.6949V30.6789H209.876Z" fill="white"/>
<path d="M218.801 30.6789V18.6656H220.979V30.6789H218.801ZM219.89 16.3536C219.466 16.3536 219.111 16.2176 218.824 15.9456C218.551 15.6736 218.415 15.3411 218.415 14.9482C218.415 14.5402 218.551 14.2002 218.824 13.9282C219.111 13.6562 219.466 13.5202 219.89 13.5202C220.314 13.5202 220.662 13.6562 220.934 13.9282C221.221 14.1851 221.365 14.51 221.365 14.9029C221.365 15.3109 221.229 15.6585 220.957 15.9456C220.684 16.2176 220.329 16.3536 219.89 16.3536Z" fill="white"/>
<path d="M231.334 18.5522C232.317 18.5522 233.179 18.7411 233.92 19.1189C234.677 19.4967 235.267 20.0709 235.69 20.8416C236.114 21.6122 236.326 22.5869 236.326 23.7656V30.6789H234.147V24.0149C234.147 22.8514 233.86 21.9749 233.285 21.3856C232.725 20.7962 231.931 20.5016 230.902 20.5016C230.131 20.5016 229.458 20.6527 228.883 20.9549C228.308 21.2571 227.862 21.7029 227.544 22.2922C227.241 22.8816 227.09 23.6145 227.09 24.4909V30.6789H224.912V18.6656H226.999V21.9069L226.659 21.0456C227.052 20.2598 227.657 19.6478 228.474 19.2096C229.291 18.7714 230.244 18.5522 231.334 18.5522Z" fill="white"/>
<path d="M245.486 30.8149C244.2 30.8149 243.065 30.5505 242.082 30.0216C241.114 29.4927 240.357 28.7674 239.813 27.8456C239.283 26.9238 239.019 25.866 239.019 24.6722C239.019 23.4785 239.276 22.4207 239.79 21.4989C240.32 20.5771 241.038 19.8594 241.946 19.3456C242.869 18.8167 243.905 18.5522 245.055 18.5522C246.22 18.5522 247.248 18.8091 248.141 19.3229C249.033 19.8367 249.729 20.562 250.228 21.4989C250.743 22.4207 251 23.5011 251 24.7402C251 24.8309 250.992 24.9367 250.977 25.0576C250.977 25.1785 250.97 25.2918 250.955 25.3976H240.72V23.8336H249.82L248.935 24.3776C248.95 23.6069 248.791 22.9194 248.458 22.3149C248.126 21.7105 247.664 21.242 247.074 20.9096C246.499 20.562 245.826 20.3882 245.055 20.3882C244.298 20.3882 243.625 20.562 243.035 20.9096C242.445 21.242 241.984 21.718 241.651 22.3376C241.318 22.942 241.152 23.6371 241.152 24.4229V24.7856C241.152 25.5865 241.333 26.3042 241.696 26.9389C242.074 27.5585 242.596 28.042 243.262 28.3896C243.928 28.7371 244.692 28.9109 245.554 28.9109C246.265 28.9109 246.908 28.79 247.483 28.5482C248.073 28.3065 248.587 27.9438 249.026 27.4602L250.228 28.8656C249.684 29.5002 249.003 29.9838 248.186 30.3162C247.384 30.6487 246.484 30.8149 245.486 30.8149Z" fill="white"/>
<path d="M54.4538 30.6789V14.8122H60.6487C62.0405 14.8122 63.2281 15.0314 64.2114 15.4696C65.1947 15.9078 65.9511 16.5425 66.4806 17.3736C67.0101 18.2047 67.2748 19.1945 67.2748 20.3429C67.2748 21.4914 67.0101 22.4811 66.4806 23.3122C65.9511 24.1282 65.1947 24.7629 64.2114 25.2162C63.2281 25.6545 62.0405 25.8736 60.6487 25.8736H55.7018L56.723 24.8082V30.6789H54.4538ZM56.723 25.0349L55.7018 23.9016H60.5806C62.0329 23.9016 63.1297 23.5918 63.871 22.9722C64.6274 22.3527 65.0056 21.4762 65.0056 20.3429C65.0056 19.2096 64.6274 18.3331 63.871 17.7136C63.1297 17.094 62.0329 16.7842 60.5806 16.7842H55.7018L56.723 15.6509V25.0349Z" fill="white"/>
<path d="M70.2856 30.6789V13.8602H72.464V30.6789H70.2856Z" fill="white"/>
<path d="M83.8622 30.6789V28.1402L83.7487 27.6642V23.3349C83.7487 22.4131 83.4764 21.7029 82.9318 21.2042C82.4023 20.6905 81.6005 20.4336 80.5265 20.4336C79.8154 20.4336 79.1195 20.5545 78.4388 20.7962C77.758 21.0229 77.1832 21.3327 76.7142 21.7256L75.8065 20.0936C76.4268 19.5949 77.168 19.2171 78.0303 18.9602C78.9077 18.6882 79.823 18.5522 80.7761 18.5522C82.425 18.5522 83.6958 18.9527 84.5883 19.7536C85.4809 20.5545 85.9272 21.7785 85.9272 23.4256V30.6789H83.8622ZM79.9138 30.8149C79.0212 30.8149 78.2346 30.6638 77.5538 30.3616C76.8882 30.0594 76.3738 29.6438 76.0107 29.1149C75.6477 28.5709 75.4661 27.9589 75.4661 27.2789C75.4661 26.6291 75.6174 26.0398 75.92 25.5109C76.2376 24.982 76.7444 24.5589 77.4403 24.2416C78.1513 23.9242 79.1044 23.7656 80.2995 23.7656H84.1118V25.3296H80.3903C79.3011 25.3296 78.5674 25.5109 78.1892 25.8736C77.811 26.2362 77.6219 26.6745 77.6219 27.1882C77.6219 27.7776 77.8563 28.2536 78.3253 28.6162C78.7943 28.9638 79.4448 29.1376 80.2768 29.1376C81.0938 29.1376 81.8048 28.9562 82.4099 28.5936C83.0301 28.2309 83.4764 27.702 83.7487 27.0069L84.1799 28.5029C83.8924 29.2131 83.3857 29.7798 82.6595 30.2029C81.9334 30.6109 81.0181 30.8149 79.9138 30.8149Z" fill="white"/>
<path d="M93.1808 30.8149C92.1824 30.8149 91.2293 30.6789 90.3216 30.4069C89.4291 30.1349 88.7256 29.8025 88.2113 29.4096L89.1189 27.6869C89.6333 28.0345 90.2687 28.3291 91.0251 28.5709C91.7815 28.8127 92.553 28.9336 93.3397 28.9336C94.3532 28.9336 95.0794 28.79 95.5181 28.5029C95.972 28.2158 96.1989 27.8154 96.1989 27.3016C96.1989 26.9238 96.0627 26.6291 95.7904 26.4176C95.5181 26.206 95.155 26.0474 94.7012 25.9416C94.2625 25.8358 93.7708 25.7451 93.2262 25.6696C92.6816 25.5789 92.137 25.4731 91.5924 25.3522C91.0478 25.2162 90.5485 25.0349 90.0947 24.8082C89.6409 24.5665 89.2778 24.2416 89.0055 23.8336C88.7332 23.4105 88.597 22.8514 88.597 22.1562C88.597 21.4309 88.8013 20.7962 89.2097 20.2522C89.6182 19.7082 90.193 19.2927 90.9343 19.0056C91.6907 18.7034 92.5833 18.5522 93.612 18.5522C94.3986 18.5522 95.1929 18.6505 95.9946 18.8469C96.8116 19.0282 97.4772 19.2927 97.9915 19.6402L97.0612 21.3629C96.5166 21.0002 95.9493 20.7509 95.3593 20.6149C94.7693 20.4789 94.1793 20.4109 93.5893 20.4109C92.6362 20.4109 91.9252 20.5696 91.4562 20.8869C90.9873 21.1891 90.7528 21.582 90.7528 22.0656C90.7528 22.4736 90.8889 22.7909 91.1612 23.0176C91.4487 23.2291 91.8117 23.3954 92.2505 23.5162C92.7043 23.6371 93.2035 23.7429 93.7481 23.8336C94.2927 23.9091 94.8373 24.0149 95.382 24.1509C95.9266 24.2718 96.4182 24.4456 96.8569 24.6722C97.3108 24.8989 97.6739 25.2162 97.9462 25.6242C98.2336 26.0322 98.3773 26.5762 98.3773 27.2562C98.3773 27.9816 98.1655 28.6087 97.7419 29.1376C97.3184 29.6665 96.7208 30.082 95.9493 30.3842C95.1777 30.6714 94.2549 30.8149 93.1808 30.8149Z" fill="white"/>
<path d="M105.003 30.8149C103.793 30.8149 102.855 30.49 102.189 29.8402C101.523 29.1905 101.191 28.2611 101.191 27.0522V16.0362H103.369V26.9616C103.369 27.6114 103.528 28.11 103.846 28.4576C104.178 28.8051 104.647 28.9789 105.252 28.9789C105.933 28.9789 106.501 28.79 106.954 28.4122L107.635 29.9762C107.302 30.2634 106.901 30.4749 106.432 30.6109C105.979 30.7469 105.502 30.8149 105.003 30.8149ZM99.1483 20.4562V18.6656H106.818V20.4562H99.1483Z" fill="white"/>
<path d="M119.381 30.6789V16.7842H113.935V14.8122H127.074V16.7842H121.627V30.6789H119.381Z" fill="white"/>
<path d="M133.115 30.8149C131.829 30.8149 130.694 30.5505 129.711 30.0216C128.743 29.4927 127.986 28.7674 127.442 27.8456C126.912 26.9238 126.648 25.866 126.648 24.6722C126.648 23.4785 126.905 22.4207 127.419 21.4989C127.949 20.5771 128.667 19.8594 129.575 19.3456C130.498 18.8167 131.534 18.5522 132.684 18.5522C133.849 18.5522 134.877 18.8091 135.77 19.3229C136.662 19.8367 137.358 20.562 137.857 21.4989C138.372 22.4207 138.629 23.5011 138.629 24.7402C138.629 24.8309 138.621 24.9367 138.606 25.0576C138.606 25.1785 138.599 25.2918 138.584 25.3976H128.349V23.8336H137.449L136.564 24.3776C136.579 23.6069 136.42 22.9194 136.087 22.3149C135.755 21.7105 135.293 21.242 134.703 20.9096C134.128 20.562 133.455 20.3882 132.684 20.3882C131.927 20.3882 131.254 20.562 130.664 20.9096C130.074 21.242 129.613 21.718 129.28 22.3376C128.947 22.942 128.781 23.6371 128.781 24.4229V24.7856C128.781 25.5865 128.962 26.3042 129.325 26.9389C129.703 27.5585 130.225 28.042 130.891 28.3896C131.557 28.7371 132.321 28.9109 133.183 28.9109C133.894 28.9109 134.537 28.79 135.112 28.5482C135.702 28.3065 136.216 27.9438 136.655 27.4602L137.857 28.8656C137.313 29.5002 136.632 29.9838 135.815 30.3162C135.013 30.6487 134.113 30.8149 133.115 30.8149Z" fill="white"/>
<path d="M146.669 30.8149C145.444 30.8149 144.347 30.5505 143.379 30.0216C142.425 29.4927 141.677 28.7674 141.132 27.8456C140.587 26.9238 140.315 25.866 140.315 24.6722C140.315 23.4785 140.587 22.4207 141.132 21.4989C141.677 20.5771 142.425 19.8594 143.379 19.3456C144.347 18.8167 145.444 18.5522 146.669 18.5522C147.758 18.5522 148.726 18.7714 149.573 19.2096C150.436 19.6327 151.101 20.2674 151.57 21.1136L149.914 22.1789C149.521 21.5896 149.036 21.1589 148.462 20.8869C147.902 20.5998 147.297 20.4562 146.646 20.4562C145.86 20.4562 145.156 20.63 144.536 20.9776C143.916 21.3251 143.424 21.8162 143.061 22.4509C142.698 23.0705 142.516 23.8109 142.516 24.6722C142.516 25.5336 142.698 26.2816 143.061 26.9162C143.424 27.5509 143.916 28.042 144.536 28.3896C145.156 28.7371 145.86 28.9109 146.646 28.9109C147.297 28.9109 147.902 28.7749 148.462 28.5029C149.036 28.2158 149.521 27.7776 149.914 27.1882L151.57 28.2309C151.101 29.062 150.436 29.7042 149.573 30.1576C148.726 30.5958 147.758 30.8149 146.669 30.8149Z" fill="white"/>
<path d="M160.431 18.5522C161.414 18.5522 162.276 18.7411 163.017 19.1189C163.774 19.4967 164.364 20.0709 164.787 20.8416C165.211 21.6122 165.423 22.5869 165.423 23.7656V30.6789H163.244V24.0149C163.244 22.8514 162.957 21.9749 162.382 21.3856C161.822 20.7962 161.028 20.5016 159.999 20.5016C159.228 20.5016 158.555 20.6527 157.98 20.9549C157.405 21.2571 156.959 21.7029 156.641 22.2922C156.338 22.8816 156.187 23.6145 156.187 24.4909V30.6789H154.009V13.8602H156.187V21.9069L155.756 21.0456C156.149 20.2598 156.754 19.6478 157.571 19.2096C158.388 18.7714 159.341 18.5522 160.431 18.5522Z" fill="white"/>
<path d="M175.412 30.6789V14.8122H177.273L184.398 26.8029H183.4L190.434 14.8122H192.295L192.318 30.6789H190.139L190.117 18.2349H190.639L184.376 28.7522H183.332L177.023 18.2349H177.591V30.6789H175.412Z" fill="white"/>
<path d="M204.006 30.6789V28.1402L203.893 27.6642V23.3349C203.893 22.4131 203.62 21.7029 203.076 21.2042C202.546 20.6905 201.744 20.4336 200.67 20.4336C199.959 20.4336 199.263 20.5545 198.583 20.7962C197.902 21.0229 197.327 21.3327 196.858 21.7256L195.95 20.0936C196.571 19.5949 197.312 19.2171 198.174 18.9602C199.052 18.6882 199.967 18.5522 200.92 18.5522C202.569 18.5522 203.84 18.9527 204.732 19.7536C205.625 20.5545 206.071 21.7785 206.071 23.4256V30.6789H204.006ZM200.058 30.8149C199.165 30.8149 198.378 30.6638 197.698 30.3616C197.032 30.0594 196.518 29.6438 196.155 29.1149C195.792 28.5709 195.61 27.9589 195.61 27.2789C195.61 26.6291 195.761 26.0398 196.064 25.5109C196.382 24.982 196.888 24.5589 197.584 24.2416C198.295 23.9242 199.248 23.7656 200.443 23.7656H204.256V25.3296H200.534C199.445 25.3296 198.711 25.5109 198.333 25.8736C197.955 26.2362 197.766 26.6745 197.766 27.1882C197.766 27.7776 198 28.2536 198.469 28.6162C198.938 28.9638 199.589 29.1376 200.421 29.1376C201.238 29.1376 201.949 28.9562 202.554 28.5936C203.174 28.2309 203.62 27.702 203.893 27.0069L204.324 28.5029C204.036 29.2131 203.53 29.7798 202.803 30.2029C202.077 30.6109 201.162 30.8149 200.058 30.8149Z" fill="white"/>
<path d="M209.876 30.6789V18.6656H211.963V21.9296L211.759 21.1136C212.092 20.2825 212.652 19.6478 213.438 19.2096C214.225 18.7714 215.193 18.5522 216.343 18.5522V20.6602C216.252 20.6451 216.161 20.6376 216.07 20.6376C215.995 20.6376 215.919 20.6376 215.844 20.6376C214.679 20.6376 213.756 20.9851 213.075 21.6802C212.394 22.3754 212.054 23.3802 212.054 24.6949V30.6789H209.876Z" fill="white"/>
<path d="M218.801 30.6789V18.6656H220.979V30.6789H218.801ZM219.89 16.3536C219.466 16.3536 219.111 16.2176 218.824 15.9456C218.551 15.6736 218.415 15.3411 218.415 14.9482C218.415 14.5402 218.551 14.2002 218.824 13.9282C219.111 13.6562 219.466 13.5202 219.89 13.5202C220.314 13.5202 220.662 13.6562 220.934 13.9282C221.221 14.1851 221.365 14.51 221.365 14.9029C221.365 15.3109 221.229 15.6585 220.957 15.9456C220.684 16.2176 220.329 16.3536 219.89 16.3536Z" fill="white"/>
<path d="M231.334 18.5522C232.317 18.5522 233.179 18.7411 233.92 19.1189C234.677 19.4967 235.267 20.0709 235.69 20.8416C236.114 21.6122 236.326 22.5869 236.326 23.7656V30.6789H234.147V24.0149C234.147 22.8514 233.86 21.9749 233.285 21.3856C232.725 20.7962 231.931 20.5016 230.902 20.5016C230.131 20.5016 229.458 20.6527 228.883 20.9549C228.308 21.2571 227.862 21.7029 227.544 22.2922C227.241 22.8816 227.09 23.6145 227.09 24.4909V30.6789H224.912V18.6656H226.999V21.9069L226.659 21.0456C227.052 20.2598 227.657 19.6478 228.474 19.2096C229.291 18.7714 230.244 18.5522 231.334 18.5522Z" fill="white"/>
<path d="M245.486 30.8149C244.2 30.8149 243.065 30.5505 242.082 30.0216C241.114 29.4927 240.357 28.7674 239.813 27.8456C239.283 26.9238 239.019 25.866 239.019 24.6722C239.019 23.4785 239.276 22.4207 239.79 21.4989C240.32 20.5771 241.038 19.8594 241.946 19.3456C242.869 18.8167 243.905 18.5522 245.055 18.5522C246.22 18.5522 247.248 18.8091 248.141 19.3229C249.033 19.8367 249.729 20.562 250.228 21.4989C250.743 22.4207 251 23.5011 251 24.7402C251 24.8309 250.992 24.9367 250.977 25.0576C250.977 25.1785 250.97 25.2918 250.955 25.3976H240.72V23.8336H249.82L248.935 24.3776C248.95 23.6069 248.791 22.9194 248.458 22.3149C248.126 21.7105 247.664 21.242 247.074 20.9096C246.499 20.562 245.826 20.3882 245.055 20.3882C244.298 20.3882 243.625 20.562 243.035 20.9096C242.445 21.242 241.984 21.718 241.651 22.3376C241.318 22.942 241.152 23.6371 241.152 24.4229V24.7856C241.152 25.5865 241.333 26.3042 241.696 26.9389C242.074 27.5585 242.596 28.042 243.262 28.3896C243.928 28.7371 244.692 28.9109 245.554 28.9109C246.265 28.9109 246.908 28.79 247.483 28.5482C248.073 28.3065 248.587 27.9438 249.026 27.4602L250.228 28.8656C249.684 29.5002 249.003 29.9838 248.186 30.3162C247.384 30.6487 246.484 30.8149 245.486 30.8149Z" fill="white"/>
</svg>
